<svg width="416" height="423" viewBox="0 0 416 423" fill="none" xmlns="http://www.w3.org/2000/svg">
<path d="M67.3966 193.972V139.866C67.3966 131.709 72.5115 123.942 81.4454 118.555L180.25 58.6242C196.092 49.0107 219.977 49.0107 235.797 58.6242L334.566 118.532C343.5 123.942 348.603 131.709 348.603 139.842V193.972" stroke="#176CAA" stroke-width="8" stroke-miterlimit="10"/>
<path d="M151.061 140.221H174.302C176.767 140.221 179.132 141.206 180.875 142.959C182.618 144.712 183.598 147.09 183.598 149.569V192.804H230.078V149.569C230.078 147.09 231.058 144.712 232.801 142.959C234.544 141.206 236.909 140.221 239.374 140.221H262.615C265.08 140.221 267.445 141.206 269.188 142.959C270.931 144.712 271.911 147.09 271.911 149.569V280.442C271.911 282.921 270.931 285.299 269.188 287.052C267.445 288.805 265.08 289.79 262.615 289.79H239.374C236.909 289.79 234.544 288.805 232.801 287.052C231.058 285.299 230.078 282.921 230.078 280.442V230.196H183.598V280.442C183.598 282.921 182.618 285.299 180.875 287.052C179.132 288.805 176.767 289.79 174.302 289.79H151.061C148.596 289.79 146.231 288.805 144.488 287.052C142.745 285.299 141.765 282.921 141.765 280.442V149.569C141.765 147.09 142.745 144.712 144.488 142.959C146.231 141.206 148.596 140.221 151.061 140.221Z" fill="#176CAA"/>
<path d="M230.078 192.804H206.838V230.196H230.078V280.442C230.078 282.921 231.058 285.299 232.801 287.052C234.544 288.805 236.909 289.79 239.374 289.79H262.615C265.08 289.79 267.445 288.805 269.188 287.052C270.931 285.299 271.911 282.921 271.911 280.442V149.569C271.911 147.09 270.931 144.712 269.188 142.959C267.445 141.206 265.08 140.221 262.615 140.221H239.374C236.909 140.221 234.544 141.206 232.801 142.959C231.058 144.712 230.078 147.09 230.078 149.569V192.804Z" fill="#FF9737"/>
<path d="M67.3966 231.365V284.584C67.3966 292.608 72.512 300.247 81.435 305.546L180.236 364.494C196.091 373.95 219.978 373.95 235.787 364.494L334.565 305.569C343.488 300.247 348.603 292.608 348.603 284.607V231.365" stroke="#176CAA" stroke-width="8" stroke-miterlimit="10"/>
</svg>
